<svg height="512" viewBox="0 0 60 60" width="512" xmlns="http://www.w3.org/2000/svg"><g id="Page-1" fill="none" fill-rule="evenodd"><g id="002---Virus" fill="rgb(0,0,0)" fill-rule="nonzero"><path id="Shape" d="m27 29c2.7614237 0 5-2.2385763 5-5s-2.2385763-5-5-5-5 2.2385763-5 5c.0033061 2.7600532 2.2399468 4.9966939 5 5zm0-8c1.6568542 0 3 1.3431458 3 3s-1.3431458 3-3 3-3-1.3431458-3-3 1.3431458-3 3-3z"/><path id="Shape" d="m38 30c1.6568542 0 3-1.3431458 3-3s-1.3431458-3-3-3-3 1.3431458-3 3 1.3431458 3 3 3zm0-4c.5522847 0 1 .4477153 1 1s-.4477153 1-1 1-1-.4477153-1-1 .4477153-1 1-1z"/><path id="Shape" d="m19 35c1.6568542 0 3-1.3431458 3-3s-1.3431458-3-3-3-3 1.3431458-3 3 1.3431458 3 3 3zm0-4c.5522847 0 1 .4477153 1 1s-.4477153 1-1 1-1-.4477153-1-1 .4477153-1 1-1z"/><path id="Shape" d="m25 37c0 3.3137085 2.6862915 6 6 6s6-2.6862915 6-6-2.6862915-6-6-6c-3.3123376.0033074-5.9966926 2.6876624-6 6zm10 0c0 2.209139-1.790861 4-4 4s-4-1.790861-4-4 1.790861-4 4-4 4 1.790861 4 4z"/><path id="Shape" d="m4 34c.74251633.0016138 1.47041418-.206357 2.1-.6.29600564-.2137902.65088637-.330803 1.016-.335 1.282.067 3.185.209 5.252.5.1441704.7315164.3352313 1.453005.572 2.16-1.727 1.353-3.326 2.433-4.359 3.1-.26506987.1465039-.56889964.2076191-.87.175-1.04057225-.0527985-2.06152468.2970684-2.851.977-1.2685366 1.0873061-1.72271083 2.8512756-1.137 4.416.40961654 1.1040491 1.28491067 1.971511 2.39259688 2.3711876 1.10768622.3996766 2.33520794.2909552 3.35540312-.2971876.6536756-.3692576 1.1880413-.9178499 1.54-1.581.1486081-.3266759.3926486-.6006986.7-.786.979-.5 3.44-1.58 4.824-2.167.4893157.5458319 1.0119839 1.0608187 1.565 1.542-.855 2.126-1.753 3.942-2.244 4.888-.1511357.2577021-.3811173.4599877-.656.577-1.2020624.6114225-2.0166271 1.7857526-2.1682089 3.1258326s.3800917 2.6666885 1.4152089 3.5311674c.7207889.5938784 1.6250713.9196886 2.559.922 1.0801585-.0030822 2.1133231-.4421263 2.8652564-1.2175928s1.1589397-1.8216664 1.1287436-2.9014072c-.0350834-.363026.0409395-.7281453.218-1.047.7-1.08 1.778-2.661 3.065-4.307.6967201.2383184 1.4078037.4323717 2.129.581.139 1.225.468 4.2.521 5.347-.0022066.2949727-.0970005.5818027-.271.82-.7418977 1.1299088-.8649543 2.5574467-.3273651 3.7976498.5375893 1.2402031 1.6635481 2.1263319 2.9953651 2.3573502.2215948.0350211.4456575.0520767.67.051 1.0615989.0023967 2.0804077-.418261 2.8310733-1.1689267.7506657-.7506656 1.1713234-1.7694744 1.1689267-2.8310733.0027954-.753874-.2106394-1.4927403-.615-2.129-.2041694-.2861753-.3148896-.6284648-.317-.98.067-1.283.206-3.184.5-5.252.7307091-.1510388 1.4511445-.3480981 2.157-.59 1.416 1.807 2.536 3.489 3.109 4.385.1467706.2598174.2066839.5597344.171.856-.0588405 1.1017523.3385277 2.1791296 1.0986741 2.9788157s1.8160074 1.2511291 2.9193259 1.2481843c.4677233.0008149.9317793-.0825119 1.37-.246 1.1053277-.4095699 1.9737272-1.285825 2.3733269-2.3947962.3995997-1.1089711.2897102-2.3377367-.3003269-3.3582038-.367566-.6457236-.9105247-1.1741202-1.566-1.524-.3330104-.1512002-.612062-.4002538-.8-.714-.584-1.145-1.414-2.866-2.2-4.809.5538624-.4845168 1.0768831-1.0031957 1.566-1.553 2.4 1.041 4.175 1.849 4.889 2.222.2605917.1520787.4650795.3842758.583.662.6060094 1.1922086 1.7657383 2.0045205 3.0932664 2.1666246s2.648648-.3472721 3.5237336-1.3586246c.7786175-.9043943 1.1127544-2.1092086.9111687-3.2854473-.2015856-1.1762387-.9178369-2.2010359-1.9531687-2.7945527-.6567786-.3811882-1.4094326-.5651857-2.168-.53-.3427515.033331-.6873119-.0418776-.985-.215-1.532-.991-2.981-2.019-4.292-3.067.2331131-.7046683.4211595-1.4234533.563-2.152 2.27-.322 4.284-.451 5.345-.5.2983627.0015853.5881755.099827.826.28 1.4290847.9361476 3.2949777.8613445 4.6445369-.186198 1.3495591-1.0475425 1.8848542-2.8365678 1.3324438-4.4531995s-2.0705755-2.7039803-3.7789807-2.7066025c-.7425389-.0017766-1.470481.2062068-2.1.6-.2979585.2099369-.6516084.3265439-1.016.335-1.282-.067-3.185-.208-5.251-.5-.1440451-.7318733-.3351077-1.4537026-.572-2.161 1.725-1.351 3.324-2.432 4.358-3.1.2638099-.146922.5669295-.2077557.867-.174 1.0407197.0547687 2.0621915-.2957574 2.85-.978 1.2685366-1.0873061 1.7227108-2.8512756 1.137-4.416-.4109879-1.1031761-1.2865244-1.9696592-2.3939125-2.3691588-1.1073882-.3994996-2.3344595-.2915498-3.3550875.2951588-.6529634.3698532-1.1868575.9183174-1.539 1.581-.1486081.3266759-.3926486.6006986-.7.786-.979.5-3.44 1.58-4.824 2.167-.4880575-.5453656-1.0093865-1.0600153-1.561-1.541.855-2.126 1.753-3.942 2.244-4.888.1515208-.2573841.3813836-.4595652.656-.577 1.5247271-.7702564 2.392041-2.4237787 2.1589688-4.1160449s-1.5150877-3.04976599-3.1912683-3.37916828c-1.6761807-.3294023-3.3765666.44199728-4.2327005 1.92021318-.3736999.64065222-.5591317 1.37371427-.535 2.115.0350834.36302602-.0409395.7281453-.218 1.047-.7 1.08-1.777 2.66-3.065 4.306-.6968618-.2378568-1.4079161-.4319022-2.129-.581-.139-1.23-.469-4.213-.521-5.353.0020952-.29051467.0958892-.5729465.268-.807.9448191-1.42670517.8774559-3.29639624-.1675859-4.6514086-1.0450417-1.35501236-2.8362681-1.89518862-4.4562046-1.34384794s-2.7097406 2.07206731-2.7112095 3.78325654c-.0023735.7525935.2103047 1.49020197.613 2.126.2054664.28790731.3168881.63230155.319.986-.057 1.094-.351 3.766-.535 5.257-.7179028.1491078-1.4256505.3434962-2.119.582-1.415-1.8-2.535-3.488-3.109-4.385-.145658-.25947313-.2048542-.55860701-.169-.854.095065-1.70543502-.9032894-3.28306333-2.4852408-3.92724923-1.5819515-.6441859-3.398406-.21277491-4.5217683 1.07392754-1.1233622 1.28670244-1.3057364 3.14475576-.4539909 4.62532169.3683867.6455293.9120203 1.1735612 1.568 1.523.3331151.1505572.612252.399338.8.713.584 1.145 1.415 2.867 2.2 4.81-.553524.4841881-1.0762117 1.002534-1.565 1.552-1.13-.49-3.868-1.688-4.89-2.222-.2605917-.1520787-.4650795-.3842758-.583-.662-.7712142-1.5268361-2.42700751-2.3953315-4.12155116-2.1618326-1.69454364.2334989-3.05374245 1.5174437-3.38327695 3.195957s.44334485 3.3810389 1.92382811 4.2378756c.65730741.3798731 1.40957014.563775 2.168.53.34204769-.0322291.68563832.0429205.983.215 1.4811547.949652 2.9133184 1.9736273 4.291 3.068-.2325737.7047504-.4202827 1.4235222-.562 2.152-2.266.321-4.282.45-5.344.5-.29812357-.0030015-.58750417-.1010967-.826-.28-1.42900061-.9370261-3.29543589-.8627942-4.64550566.1847612-1.35006976 1.0475554-1.88558052 2.8370579-1.33287143 4.4540221.5527091 1.6169643 2.07155972 2.704247 3.78037709 2.7062167zm15.54 16.26c-.4037779.6595946-.5924878 1.4284129-.54 2.2.012123.3699227-.0807978.7357116-.268 1.055-.4299996.7365212-1.2797459 1.1193362-2.1163045.9534061-.8365586-.1659302-1.4758609-.8440958-1.592191-1.6889807-.11633-.8448849.3159083-1.6705883 1.0764955-2.0564254.6542614-.3046092 1.1918961-.8134671 1.532-1.45.557-1.073 1.33-2.657 2.1-4.5.8273563.5750486 1.7014096 1.0798119 2.613 1.509-1.171 1.528-2.145 2.967-2.805 3.978zm22.775-1.071c.3701088.6795887.9421123 1.2274821 1.637 1.568.3259564.1737913.5957806.4366791.778.758.4263266.7403774.3352833 1.669809-.2266095 2.3133845-.5618929.6435756-1.4705468.8591677-2.2616683.5366157-.7911215-.3225521-1.2899991-1.1120158-1.2417222-1.9650002.0627958-.7186693-.1091356-1.4383247-.49-2.051-.537-.84-1.555-2.372-2.848-4.061.9105109-.4316905 1.7829435-.9394945 2.608-1.518.742 1.782 1.499 3.347 2.045 4.419zm10.461-20.26c.7732621.0209063 1.53372-.2004132 2.175-.633.8461651-.4962953 1.9251694-.3249782 2.576.409.6579289.7585311.6514385 1.8873118-.0151696 2.6382269-.666608.7509151-1.786662.8911547-2.6178304.3277731-.5920396-.4112474-1.3004653-.6215668-2.021-.6-.995.045-2.829.161-4.938.436.041-.5.064-1 .064-1.507s-.022-1.009-.064-1.508c1.908.248 3.64.374 4.841.437zm-12.316-19.189c.4037779-.65959462.5924878-1.4284129.54-2.2-.012123-.36992268.0807978-.73571157.268-1.055.4299996-.73652118 1.2797459-1.11933624 2.1163045-.95340607.8365586.16593016 1.4758609.84409581 1.592191 1.68898068.11633.84488487-.3159083 1.67058825-1.0764955 2.05642539-.6536021.30520975-1.1907473.8139365-1.531 1.45-.557 1.073-1.33 2.657-2.095 4.5-.8273563-.5750486-1.7014096-1.0798119-2.613-1.509 1.165-1.528 2.139-2.967 2.799-3.978zm-22.775 1.071c-.3697985-.6792276-.9414773-1.22679524-1.636-1.567-.3261013-.17440123-.596178-.43754399-.779-.759-.426387-.74102498-.3346023-1.67113364.2284012-2.31452386.5630035-.64339023 1.4727113-.85776909 2.2637574-.53346992s1.2884819 1.115554 1.2378414 1.96899378c-.0626484.7183418.10928 1.43763408.49 2.05.65 1.016 1.634 2.477 2.85 4.063-.9111186.4304184-1.7845157.9365271-2.611 1.513-.74-1.783-1.497-3.349-2.044-4.421zm-7.96 8.723c-.64512158-.4035043-1.40218768-.5905813-2.161-.534-.37772747.0192295-.7528209-.072545-1.079-.264-.73476672-.4306329-1.11622668-1.2793372-.95048305-2.1147149s.84232924-1.4741598 1.6858471-1.5916522 1.66891318.3120809 2.05663595 1.0703671c.30443091.6570478.8139802 1.1974789 1.452 1.54 1.032.538 3.582 1.659 5.01 2.279.7978795.3414852 1.7249403.1294125 2.295-.525 2.2934268-2.5919003 5.3671758-4.3681328 8.758-5.061.8565907-.165154 1.507315-.8664632 1.608-1.733.173-1.518.472-4.236.531-5.384.0222081-.76908491-.198588-1.52560021-.631-2.162-.1984375-.31554842-.3025274-.68125092-.3-1.054.0031964-.85521296.5498138-1.61375904 1.3600763-1.88739051.8102624-.27363147 1.704849-.00179037 2.2258822.67638648.5210332.67817684.553202 1.61260068.0800415 2.32500403-.4096363.58491149-.6200203 1.28619155-.6 2 .053 1.157.356 3.935.532 5.488.1017839.865083.7517577 1.5648059 1.607 1.73 3.3898507.6919721 6.4627167 2.4676008 8.755 5.059.5721942.6545488 1.5010271.8657573 2.3.523 1.4-.61 3.9-1.712 4.934-2.236.6704236-.3682808 1.2109808-.9343293 1.548-1.621.176571-.3307573.4436441-.6044206.77-.789.8901323-.518084 2.0281729-.2754673 2.6296156.5606028.6014427.83607.4696117 1.9921928-.3046156 2.6713972-.3979932.3453826-.9136051.5244145-1.44.5-.7211812-.0635656-1.4436276.1072264-2.06.487-1.074.691-2.729 1.808-4.514 3.207-.6651068.5297939-.9246393 1.4209357-.648 2.225 1.09997 3.2966664 1.09997 6.8613336 0 10.158-.2749111.8031905-.0155637 1.6924961.648 2.222 1.371 1.076 2.87 2.14 4.454 3.164.6451072.4020163 1.4007285.5899591 2.159.537.3778674-.0207204.7533852.0711579 1.079.264.7347667.4306329 1.1162267 1.2793372.9504831 2.1147149-.1657437.8353777-.8423293 1.4741598-1.6858472 1.5916522-.8435178.1174924-1.6689131-.3120809-2.0566359-1.0703671-.3041837-.6569639-.8138276-1.1971443-1.452-1.539-1.021-.533-3.576-1.657-5.009-2.279-.7992447-.3439442-1.7291589-.1316812-2.3.525-2.447434 2.7736428-5.7860124 4.6063243-9.44 5.182-.4371355.071547-.7763404.4200841-.836.859-.373 2.41-.542 4.666-.618 6.136-.0237503.7675949.1960829 1.523009.628 2.158.2006316.3162456.3061529.6834874.304 1.058.0026784.5877659-.2533268 1.1469543-.7 1.529-.7627606.6392432-1.8789718.6222435-2.6219119-.0399314-.7429402-.6621749-.8877239-1.7690868-.3400881-2.6000686.4094124-.5880318.6196871-1.2917513.6-2.008-.054-1.165-.356-3.935-.532-5.482-.1024736-.8640143-.751786-1.5626518-1.606-1.728-3.3903137-.6921088-6.4635544-2.4681021-8.756-5.06-.3826696-.4351171-.9335521-.6852535-1.513-.687-.2714353.0002573-.5399455.0560693-.789.164-1.4.61-3.9 1.712-4.934 2.236-.6704236.3682808-1.2109808.9343293-1.548 1.621-.17630017.3309554-.44343949.6046865-.77.789-.89111379.5278232-2.03776375.2880214-2.64267662-.5526698-.60491287-.8406911-.46794167-2.0041127.31567662-2.6813302.39675738-.345468.91148975-.5245677 1.437-.5.72084254.0614754 1.44242447-.1095455 2.059-.488 1.073-.69 2.727-1.807 4.515-3.208.6646786-.5296395.924167-1.4202293.648-2.224-1.0993028-3.2957484-1.0993028-6.8592516 0-10.155.2770223-.8041555.017912-1.6956232-.647-2.226-1.363-1.074-2.862-2.138-4.45-3.165zm-7.7 10.119c.12115481-.6622359.56549639-1.2199919 1.18390452-1.4860863.61840814-.2660944 1.32892239-.2052604 1.89309548.1620863.59135254.4126756 1.30026177.6231385 2.021.6 1.2-.054 2.959-.176 4.937-.435-.041.5-.063 1-.063 1.506s.023 1.009.064 1.508c-1.908-.248-3.64-.374-4.841-.437-.77289249-.0180572-1.53250305.2030157-2.175.633-.84394315.4960871-1.92079352.3269395-2.572-.404-.38720745-.4547911-.55014728-1.0592098-.444-1.647z"/></g></g></svg>